<svg xmlns="http://www.w3.org/2000/svg" xmlns:svgjs="http://svgjs.com/svgjs" xmlns:xlink="http://www.w3.org/1999/xlink" width="288" height="288"><svg xmlns="http://www.w3.org/2000/svg" width="288" height="288" viewBox="0 0 250 42"><path fill="#e42f2f" d="M28.2031925,40.6670906 C30.1307489,40.6670906 31.8131336,40.3959767 33.2503466,39.8537488 C34.6875597,39.3115209 35.8796011,38.5574853 36.8264708,37.5916419 C37.7733406,36.6257985 38.483493,35.4820365 38.9569278,34.1603561 C39.4303627,32.8386757 39.6670802,31.3983829 39.6670802,29.8394777 C39.6670802,26.2472181 38.6948478,23.5699679 36.7503831,21.8077273 C34.8059184,20.0454867 31.9568549,19.1643664 28.2031925,19.1643664 L28.2031925,19.1643664 L11.3117121,19.1643664 C9.89140746,19.1643664 8.7669996,18.7746402 7.93848855,17.9951876 C7.1099775,17.215735 6.69572197,16.1143346 6.69572197,14.6909865 C6.69572197,13.2676383 7.1015233,12.1577656 7.91312597,11.3613684 C8.72472863,10.5649712 9.87449907,10.1667726 11.3624373,10.1667726 L11.3624373,10.1667726 L37.8409742,10.1667726 L37.8409742,3.71087202 L11.3624373,3.71087202 C9.53633129,3.71087202 7.91312597,3.97351364 6.49282131,4.4987969 C5.07251665,5.02408015 3.88047523,5.74422655 2.91669707,6.65923608 C1.95291891,7.57424562 1.22585819,8.66717368 0.735514914,9.93802026 C0.245171638,11.2088668 -4.97076048e-14,12.5898535 -4.97076048e-14,14.0809801 C-4.97076048e-14,15.605996 0.262080027,17.0123996 0.78624008,18.3001908 C1.31040013,19.587982 2.05436924,20.6978546 3.0181474,21.6298088 C3.98192557,22.561763 5.16551278,23.2903817 6.56890906,23.8156649 C7.97230533,24.3409482 9.53633129,24.6035898 11.260987,24.6035898 L11.260987,24.6035898 L28.2031925,24.6035898 C29.9278482,24.6035898 31.2551567,25.0017884 32.1851181,25.7981856 C33.1150795,26.5945828 33.5800602,27.7891786 33.5800602,29.381973 C33.5800602,30.8392104 33.1150795,32.0083892 32.1851181,32.8895095 C31.2551567,33.7706298 29.9278482,34.21119 28.2031925,34.21119 L28.2031925,34.21119 L0.557976831,34.21119 L0.557976831,40.6670906 L28.2031925,40.6670906 Z M75.07937,41.1754292 C75.7557055,41.1754292 76.3474992,40.9890384 76.8547508,40.6162567 C77.3620025,40.2434751 77.8016206,39.7351364 78.1736051,39.0912408 L78.1736051,39.0912408 L99.4274499,3.71087202 L92.0215756,3.71087202 L75.3329958,32.1778354 L58.5936909,3.71087202 L50.7312901,3.71087202 L71.9344097,39.0912408 C72.3063942,39.7351364 72.7460123,40.2434751 73.253264,40.6162567 C73.7605157,40.9890384 74.3692177,41.1754292 75.07937,41.1754292 Z M117.04509,40.6670906 L117.04509,3.71087202 L110.602994,3.71087202 L110.602994,40.6670906 L117.04509,40.6670906 Z M155.465484,-2.48689958e-14 L152.880663,3.88554081 L146.142894,3.88554081 C147.159591,5.00803038 147.79718,6.45863228 148.090127,7.9610414 L148.090127,7.9610414 L155.465484,7.9610414 L152.880663,11.8465822 L148.159055,11.8465822 C147.31468,18.0634475 141.386823,21.6036069 135.062626,21.9489883 L135.062626,21.9489883 L150.399234,41.1521945 L143.799323,41.1521945 L128.962447,22.5706749 L128.962447,18.9441701 L132.667358,18.9441701 C140.31843,18.9441701 142.644769,14.6614407 142.644769,11.8638513 L142.644769,11.8638513 L142.644769,11.8465822 L127.566643,11.8465822 L130.151465,7.9610414 L142.162269,7.9610414 C140.525215,4.23092222 136.406733,3.88554081 131.96084,3.88554081 L131.96084,3.88554081 L127.566643,3.88554081 L130.151465,-2.48689958e-14 L155.465484,-2.48689958e-14 Z M200.925638,3.71087202 L200.925638,10.1667726 L186.925492,10.1667726 L186.925492,40.6670906 L180.483396,40.6670906 L180.483396,10.1667726 L166.48325,10.1667726 L166.48325,3.71087202 L200.925638,3.71087202 Z M245.102622,3.71087202 L245.358344,3.71780391 C246.202366,3.76401651 246.962545,4.04129213 247.63888,4.54963076 C248.382849,5.10880326 248.754834,5.93061738 248.754834,7.01507313 C248.754834,7.96397191 248.315216,8.87898145 247.43598,9.76010174 L247.43598,9.76010174 L222.935724,34.5161931 L248.602658,34.5161931 L248.602658,40.6670906 L216.037102,40.6670906 L215.772786,40.6601587 C214.902213,40.6139461 214.136445,40.3366705 213.475481,39.8283318 C212.74842,39.2691594 212.38489,38.4473452 212.38489,37.3628895 C212.38489,36.4139907 212.824508,35.4989812 213.703744,34.6178609 L213.703744,34.6178609 L238.203999,9.86176947 L212.841416,9.86176947 L212.841416,3.71087202 L245.102622,3.71087202 Z" class="colorFFF svgShape" transform="translate(.936)"/></svg></svg>